# This file uses meters as units for non-parametric coordinates.

mtllib ScalePlaneTestMesh.mtl
g default
v -1000.000000 -0.000000 1000.000000
v 1000.000000 -0.000000 1000.000000
v -1000.000000 0.000000 -1000.000000
v 1000.000000 0.000000 -1000.000000
vt 0.000000 0.000000
vt 1.000000 0.000000
vt 0.000000 1.000000
vt 1.000000 1.000000
vn 0.000000 1.000000 0.000000
vn 0.000000 1.000000 0.000000
vn 0.000000 1.000000 0.000000
vn 0.000000 1.000000 0.000000
s off
g ScalePlaneTestMesh
usemtl initialShadingGroup
f 1/1/1 2/2/2 4/4/3 3/3/4
